<svg xmlns="http://www.w3.org/2000/svg" height="800" width="1200" version="1.0" viewBox="-111.4662 -40.5605 966.0404 243.363"><path class="ps01" d="M718.603 157.448c5.234 0 9.755-4.084 9.755-9.673 0-5.54-4.521-9.624-9.755-9.624-5.305 0-9.826 4.084-9.826 9.624 0 5.59 4.521 9.673 9.826 9.673zm-7.868-9.673c0-4.572 3.453-8.015 7.868-8.015 4.344 0 7.797 3.443 7.797 8.015 0 4.646-3.453 8.064-7.797 8.064-4.415 0-7.868-3.418-7.868-8.064zm5.803.765h1.958l2.92 4.824h1.887l-3.169-4.902c1.638-.203 2.92-1.072 2.92-3.062 0-2.197-1.318-3.165-3.952-3.165h-4.237v11.13h1.673zm0-1.431v-3.447h2.314c1.175 0 2.421.257 2.421 1.635 0 1.712-1.281 1.812-2.706 1.812h-2.029" fill="#fff" fill-rule="evenodd"/><path class="ps02" d="M685.065 126.363c-13.066-6.903-23.07-15.345-30.19-23.437a51.741 51.741 0 01-8.296 7.605c-7.583 5.557-15.914 6.654-25.812 3.774-1.495 3.684-2.314 7.797-2.42 12.104-.214 10.97 5.162 23.366 10.787 29.426 4.877 5.244 11.393 4.863 19.19 5.668 7.12.737 12.71 2.314 21.432-3.842 11.5-8.145 15.737-19.574 15.31-31.298" fill="#c82128"/><path class="ps03" d="M699.698 115.633c-.997-4.412-6.729-49.994-29.55-63.216.676-.015 1.282-.698 2.172-.389 18.406 6.445 25.384 37.48 29.585 55.672a36.504 36.504 0 01-.07-5.226c.569-10.695 2.1-25.805-6.445-44.147-8.117-17.314-31.045-24.185-31.722-27.02-.356-1.395 1.78-7.554 3.133-12.414 14.348 11.357 27.058 26.66 30.013 34.086 1.21.057 4.273-.648 6.16-2.218-5.946-10.859-18.122-25.064-35.105-38.152-.249-2.154-1.139-4.91-1.958-5.913-3.81-4.533-10.11-6.056-10.11-6.056s-.037.035-.037.067c-2.171-.527-5.482-1.014-7.547-.466-2.955.783-5.127 3.891-4.842 5.874.747 5.035 1.317 9.42 1.317 9.42l-.107.57c-9.292 15.968-16.27 36.967-16.733 38.223-1.032 2.674 5.127 4.96 8.616 2.069-1.033-1.082-1.994-2.916-1.495-5.461 1.352-7.128 4.45-15.797 7.832-22.815a244.118 244.118 0 00-1.388 18.852c1.744-.2 3.702-.178 5.554.114-.178-13.992 2.243-25.214 5.411-33.014 1.282-1.254 2.386-2.18 3.347-2.856a104.858 104.858 0 015.162 3.286c.036 4.75-2.599 13.02-2.92 18.197-3.844 4.169-6.372 9.488-8.045 15.124 7.654 2.63 13.137 9.492 15.06 16.274 3.061 12.08.391 24.75-7.62 35.303 9.649 11.33 26.489 24.751 49.987 32.463-3.205-3.87-6.017-8.958-7.655-16.231" fill="#00a767"/><path class="ps02" d="M661.675 67.039c-1.175-6.626-5.59-13.252-12.533-16.278-3.845-1.656-10.502-2.286-12.674.036.25 2.143 1.638 4.23 3.418 5.728-5.056 5.593-14.063 3.827-15.131-1.14-.677-3.203 2.065-5.614 4.13-5.767-1.638-1.684-10.04-5.835-17.66-3.386-10.004 3.233-15.7 12.992-17.089 24.662-1.317 10.99 2.706 23.694 8.296 30.63 4.77 5.888 9.541 6.155 16.662 7.988 7.868 2.023 14.24 4.59 24.28-2.05 15.56-10.257 20.686-25.05 18.3-40.423m63.872-16.687c-4.629-2.108-13.814-2.564-20.187 2.275-1.531 1.153-4.77 2.11-7.227 2.762 10.787 19.425 8.188 34.93 7.654 47.765-.178 4.714.677 9.157 2.065 13.212 5.483.673 12.425-.534 16.484-2.62 9.4-4.817 16.983-13.985 18.371-24.69 1.709-12.804-1.673-31.662-17.16-38.704M186.842 68.758c2.101-.441 4.38-.715 4.38-.715V59.42H145.08v8.623s1.78.274 3.88.715c2.92.627 4.308 2.126 4.629 4.984v19.13h-23.213V73.75c.32-2.863 1.637-4.362 4.592-4.992 2.065-.441 3.81-.705 3.81-.705v-8.64l-45.892.006v8.623s2.243.275 4.344.716c2.92.627 4.308 2.115 4.628 4.952v48.88c-.32 2.833-1.709 4.325-4.628 4.951-2.1.446-4.344.695-4.344.695v8.562h45.892v-8.555s-1.745-.264-3.81-.709c-2.777-.598-4.2-1.986-4.592-4.578v-18.371l23.213-.01v17.722c-.25 3.02-1.602 4.593-4.629 5.237-2.1.445-3.88.702-3.88.702v8.562h46.14v-8.562s-2.278-.25-4.379-.695c-2.848-.612-4.2-2.06-4.592-4.767V73.525c.391-2.713 1.744-4.158 4.592-4.767m355.066-9.346v8.542s2.208.234 4.344.704c1.816.403 2.741 1.453 1.709 3.61L535 92.442l-12.995-20.02c-1.139-2.25-.213-3.328 1.674-3.738 2.1-.466 4.272-.708 4.272-.708v-8.563h-50.164v8.556s1.958.263 4.059.708c3.346.72 5.411 1.1 9.15 6.348l20.257 33.171v16.028c-.64 1.791-1.922 2.827-4.2 3.319-2.101.445-5.199.715-5.199.715v8.541h48.598v-8.54s-3.133-.271-5.234-.716c-2.705-.58-4.2-1.909-4.628-4.337v-15.134l21.184-33.097c3.738-5.176 5.803-5.564 9.15-6.28 2.064-.445 4.023-.708 4.023-.708l.035-8.574h-33.075m-341.642.007v8.623s2.599.274 4.664.715c2.848.605 4.236 2.04 4.592 4.717v49.346c-.356 2.677-1.744 4.112-4.592 4.72-2.065.446-4.664.695-4.664.695v8.562h81.21v-31.12s-9.97-.021-9.97-.007c-.747 6.558-.783 11.934-3.88 15.473-2.99 3.418-6.337 4.77-13.85 4.77l-15.166.011v-22.002l8.33-.014c2.92.302 4.593 1.662 4.985 4.635.285 2.322.712 5.657.712 5.657l8.616-.024V82.665l-8.616-.022s-.285 3.208-.712 5.658c-.534 2.944-2.1 4.315-4.984 4.628l-7.904.032V69.62h15.772c7.12 0 9.897 2.5 12.425 5.995 2.955 4.105 3.738 9.734 4.201 14.003h10.04V59.42h-81.21M68.143 63.3c-5.91-1.773-11.606-6.042-25.349-6.042C16.626 57.258 0 76.918 0 99.391c0 21.429 14.42 40.565 47.458 40.565 19.973 0 36.956-11.275 37.205-32.056l-14.027-.007c-1.887 14.415-11.927 17.787-19.048 17.787-10.61 0-20.258-6.594-20.258-25.203 0-20.016 7.833-27.831 21.255-27.831 10.004 0 16.769 4.87 18.229 16.89H84.52V59.413s-9.934.01-9.898 0c-1.104 1.64-2.35 5.12-6.48 3.887" fill="#c82128"/><path class="ps04" d="M384.829 127.748c-1.603-.59-3.917-1-7.975-6.647-3.347-4.596-9.221-13.985-9.221-13.985-2.813-3.656-6.836-5.18-9.435-5.262 1.388-.33 4.059-1.232 7.832-2.862 6.338-2.727 8.474-8.765 8.474-18.99.035-16.264-13.53-20.579-25.136-20.59h-58.566v8.652s2.279.441 4.344.89c2.92.627 4.414 2.143 4.7 5.023v49.456c-.428 2.506-1.745 3.66-4.416 4.461-1.673.506-4.877.342-5.554.342l-.035 8.562h46.034v-8.562s-2.207-.185-4.272-.63c-2.848-.616-4.201-2.065-4.557-4.785v-15.94l5.767.068c1.353 0 2.742.385 3.988 1.043a10.808 10.808 0 012.99 2.393l16.84 26.413h31.295v-8.473s-1.851-.118-3.097-.577zm-45.572-31.743h-10.396V71.674l9.043-.007c.214 0 .499-.01.677 0 4.379.253 8.402 3.311 8.473 10.346v3.343c0 7.954-3.275 10.649-7.797 10.649m146.683 31.743c-1.602-.59-3.88-1-7.975-6.647-3.347-4.596-9.221-13.985-9.221-13.985-2.813-3.656-6.836-5.18-9.435-5.262 1.389-.33 4.059-1.232 7.833-2.862 6.337-2.727 8.473-8.765 8.473-18.99.036-16.264-13.529-20.579-25.135-20.59h-58.566v8.652s2.278.441 4.343.89c2.955.627 4.415 2.143 4.7 5.023v49.456c-.428 2.506-1.745 3.66-4.415 4.461-1.673.506-4.878.342-5.59.342l.036 8.562h45.998v-8.562s-2.207-.185-4.272-.63c-2.848-.616-4.201-2.065-4.557-4.785v-15.94l5.768.068c1.353 0 2.741.385 3.987 1.043 1.14.602 2.172 1.407 2.99 2.393l16.84 26.413h31.295v-8.473s-1.85-.118-3.097-.577zm-45.571-31.743h-10.396V71.674l9.043-.007c.213 0 .498-.01.676 0 4.38.253 8.402 3.311 8.474 10.346l.035 3.343c0 7.954-3.31 10.649-7.832 10.649" fill="#c82128" fill-rule="evenodd"/></svg>